<svg xmlns="http://www.w3.org/2000/svg" xmlns:xlink="http://www.w3.org/1999/xlink" version="1.1" viewBox="0 0 73 58" xml:space="preserve" class="brand__logo">
  <path d="M12.6,38.3L1.1,56.5h15.3H21l15.3-24C29.2,38,16.8,38.3,12.6,38.3z"></path>
  <path d="M71.5,56.5L53.9,28.9L36.3,1.3l-9.9,15.6l7.7,12l0.9,1.4c8.2-5.9,11.5-13,11.5-13 c-2.8,7.9-6.6,12.5-10,15.2l15.3,24H71.5z"></path>
  <path d="M45.9,2.8V1.2h6.9v1.4l-2.9,3c1.6,0.2,3.1,1,3.1,3c0,1.9-1.5,3.3-3.7,3.3c-1.8,0-3.1-0.8-4-1.8 l1.3-1.2c0.7,0.9,1.6,1.4,2.8,1.4c1,0,1.8-0.6,1.8-1.6c0-1-0.9-1.6-2.4-1.6h-0.9l-0.3-1.2l2.8-3H45.9z"></path>
</svg>